<svg width="290" height="192" viewBox="0 0 290 192" fill="none" xmlns="http://www.w3.org/2000/svg">
<g clip-path="url(#clip0_5467_41145)">
<path d="M132.917 97.4765C132.917 105.258 126.871 110.992 119.451 110.992C112.031 110.992 105.984 105.258 105.984 97.4765C105.984 89.6401 112.031 83.9609 119.451 83.9609C126.871 83.9609 132.917 89.6401 132.917 97.4765ZM127.022 97.4765C127.022 92.6138 123.518 89.2867 119.451 89.2867C115.384 89.2867 111.879 92.6138 111.879 97.4765C111.879 102.29 115.384 105.666 119.451 105.666C123.518 105.666 127.022 102.284 127.022 97.4765Z" fill="#858E97"></path>
<path d="M161.972 97.4765C161.972 105.258 155.925 110.992 148.505 110.992C141.085 110.992 135.039 105.258 135.039 97.4765C135.039 89.6462 141.085 83.9609 148.505 83.9609C155.925 83.9609 161.972 89.6401 161.972 97.4765ZM156.077 97.4765C156.077 92.6138 152.572 89.2867 148.505 89.2867C144.438 89.2867 140.934 92.6138 140.934 97.4765C140.934 102.29 144.438 105.666 148.505 105.666C152.572 105.666 156.077 102.284 156.077 97.4765Z" fill="#858E97"></path>
<path d="M189.812 84.7775V109.042C189.812 119.023 183.966 123.1 177.054 123.1C170.548 123.1 166.632 118.719 165.155 115.136L170.288 112.985C171.202 115.184 173.441 117.78 177.048 117.78C181.472 117.78 184.214 115.032 184.214 109.859V107.915H184.008C182.689 109.554 180.147 110.986 176.939 110.986C170.227 110.986 164.078 105.1 164.078 97.5252C164.078 89.8961 170.227 83.9609 176.939 83.9609C180.141 83.9609 182.683 85.3929 184.008 86.9833H184.214V84.7836H189.812V84.7775ZM184.632 97.5252C184.632 92.7662 181.478 89.2867 177.466 89.2867C173.399 89.2867 169.991 92.7662 169.991 97.5252C169.991 102.236 173.399 105.666 177.466 105.666C181.478 105.666 184.632 102.236 184.632 97.5252Z" fill="#858E97"></path>
<path d="M199.031 70.5547V110.163H193.281V70.5547H199.031Z" fill="#858E97"></path>
<path d="M221.446 101.927L226.021 104.998C224.544 107.198 220.986 110.988 214.837 110.988C207.211 110.988 201.516 105.053 201.516 97.4726C201.516 89.4352 207.259 83.957 214.177 83.957C221.143 83.957 224.551 89.5387 225.664 92.5551L226.275 94.0906L208.33 101.574C209.704 104.285 211.841 105.668 214.837 105.668C217.839 105.668 219.921 104.182 221.446 101.927ZM207.362 97.0643L219.358 92.0493C218.698 90.3614 216.713 89.1853 214.377 89.1853C211.381 89.1853 207.211 91.8482 207.362 97.0643Z" fill="#858E97"></path>
<path d="M84.2187 93.9549V88.2208H103.41C103.598 89.2202 103.695 90.4023 103.695 91.682C103.695 95.9841 102.527 101.304 98.7623 105.094C95.1006 108.933 90.4222 110.98 84.2247 110.98C72.7375 110.98 63.0781 101.56 63.0781 89.9941C63.0781 78.4285 72.7375 69.0078 84.2247 69.0078C90.5796 69.0078 95.1067 71.5184 98.5081 74.7906L94.4894 78.8367C92.0503 76.5334 88.7458 74.7419 84.2187 74.7419C75.8302 74.7419 69.2696 81.5484 69.2696 89.9941C69.2696 98.4398 75.8302 105.246 84.2187 105.246C89.6597 105.246 92.7584 103.047 94.7436 101.048C96.3535 99.4269 97.4126 97.1114 97.8302 93.9488L84.2187 93.9549Z" fill="#858E97"></path>
</g>
<defs>
<clipPath id="clip0_5467_41145">
<rect width="163.356" height="54.1118" fill="white" transform="translate(63 69)"></rect>
</clipPath>
</defs>
</svg>
